<svg width="512" height="512" viewBox="0 0 512 512" fill="none" xmlns="http://www.w3.org/2000/svg">
<rect width="512" height="512" fill="#FAF3F0"/>
<path d="M74 465V440.412H81.6042C90.1832 440.412 97.9824 439.631 105.002 438.07C112.411 436.119 118.26 432.411 122.55 426.947C127.229 421.092 129.569 412.506 129.569 401.188V304.984L157.697 270.695L129.569 232.324V111.398C129.569 99.6891 127.229 91.1027 122.55 85.6387C118.26 79.7843 112.411 76.0766 105.002 74.5154C97.9824 72.564 90.1832 71.5882 81.6042 71.5882H74V47H231.348C265.274 47 293.351 51.2932 315.578 59.8796C337.806 68.0757 354.379 80.5649 365.298 97.3473C376.217 113.739 381.676 134.62 381.676 159.989C381.676 180.674 377.387 198.237 368.808 212.678C360.229 226.728 349.31 238.047 336.051 246.633C323.183 255.219 309.729 261.854 295.691 266.538L375.827 393.577C380.896 401.383 385.771 408.213 390.45 414.067C395.13 419.922 399.809 424.8 404.489 428.703C409.558 432.606 414.628 435.533 419.697 437.485C425.156 439.436 431.006 440.412 437.245 440.412H439V465H430.811C412.483 465 397.275 464.415 385.186 463.244C373.487 461.683 363.738 459.146 355.939 455.633C348.14 451.73 341.121 446.266 334.881 439.241C329.032 432.216 322.793 423.239 316.163 412.311L237.197 280.588H188.647V401.188C188.647 412.506 190.792 421.092 195.082 426.947C199.761 432.411 205.611 436.119 212.63 438.07C220.039 439.631 228.033 440.412 236.612 440.412H244.216V465H74ZM229.593 253.073C252.6 253.073 270.538 249.755 283.407 243.12C296.276 236.095 305.44 225.948 310.899 212.678C316.358 199.018 319.088 182.04 319.088 161.745C319.088 140.669 316.163 123.887 310.314 111.398C304.465 98.5182 294.911 89.3464 281.652 83.8824C268.394 78.028 250.651 75.1009 228.423 75.1009H188.647V253.073H229.593Z" fill="#36272E"/>
<path d="M83.5162 336.168H80.9807H72V348H80.9807H148.031V336.168H147.186C140.988 336.168 136.48 335.511 133.663 334.196C131.034 332.693 129.719 330.44 129.719 327.435C129.719 324.43 130.564 321.331 132.254 318.138C133.945 314.757 135.635 311.94 137.326 309.687L157.046 282.078L175.922 307.433C180.241 313.255 183.059 317.481 184.373 320.11C185.876 322.552 186.627 324.805 186.627 326.871C186.627 329.876 185.219 332.224 182.401 333.914C179.584 335.417 175.358 336.168 169.724 336.168H168.315V348H241V336.168H237.338C235.084 336.168 232.736 335.698 230.294 334.759C227.853 333.82 225.317 332.224 222.688 329.97C220.246 327.716 217.617 324.805 214.8 321.237L173.386 265.457L202.404 226.862C206.16 221.791 209.447 217.941 212.264 215.312C215.269 212.682 218.18 210.992 220.998 210.241C224.003 209.302 227.289 208.832 230.858 208.832H233.393V197H171.696V208.832H172.541C176.861 208.832 180.429 209.396 183.247 210.522C186.252 211.461 187.754 213.621 187.754 217.002C187.754 219.443 187.097 222.167 185.782 225.172C184.467 227.989 182.777 230.994 180.711 234.187L166.061 255.315L147.468 229.961C145.402 226.956 143.805 224.514 142.678 222.636C141.551 220.758 140.988 218.88 140.988 217.002C140.988 214.748 142.021 212.87 144.087 211.368C146.341 209.677 150.66 208.832 157.046 208.832H157.891V197H86.3334H72V208.832H86.3334H89.9958C92.8131 208.832 95.5364 209.396 98.1658 210.522C100.795 211.649 103.425 213.34 106.054 215.593C108.871 217.847 111.595 220.57 114.224 223.763L149.721 272.218L114.224 318.138C110.656 322.833 107.369 326.496 104.364 329.125C101.359 331.754 98.2598 333.632 95.0669 334.759C91.874 335.698 88.0238 336.168 83.5162 336.168Z" fill="#9A7777"/>
<path d="M241.901 347.923V336.103H238.222L237.797 336.098C235.806 336.046 233.743 335.636 231.608 334.867L231.15 334.696C228.698 333.758 226.151 332.163 223.511 329.911C221.212 327.801 218.748 325.113 216.117 321.848L215.589 321.187L174 265.464L203.141 226.909C206.913 221.843 210.214 217.996 213.043 215.37C216.061 212.743 218.984 211.054 221.813 210.304C224.831 209.366 228.132 208.897 231.715 208.897H234.261V197.077L238.361 193V212.974H231.715C228.492 212.974 225.609 213.395 223.036 214.195L222.954 214.221L222.87 214.243C220.843 214.781 218.483 216.063 215.794 218.394C213.234 220.78 210.117 224.39 206.435 229.335L206.426 229.347L206.418 229.358L179.117 265.479L218.838 318.701C221.539 322.101 224.002 324.804 226.224 326.854C228.6 328.873 230.734 330.168 232.622 330.891C234.678 331.678 236.536 332.026 238.222 332.026H246V352L241.901 347.923Z" fill="#FAF3F0"/>
<path d="M251.901 347.923V336.103H248.222L247.797 336.098C245.806 336.046 243.743 335.636 241.608 334.867L241.15 334.696C238.698 333.758 236.151 332.163 233.511 329.911C231.212 327.801 228.748 325.113 226.117 321.848L225.589 321.187L184 265.464L213.141 226.909C216.913 221.843 220.214 217.996 223.043 215.37C226.061 212.743 228.984 211.054 231.813 210.304C234.831 209.366 238.132 208.897 241.715 208.897H244.261V197.077L248.361 193V212.974H241.715C238.492 212.974 235.609 213.395 233.036 214.195L232.954 214.221L232.87 214.243C230.843 214.781 228.483 216.063 225.794 218.394C223.234 220.78 220.117 224.39 216.435 229.335L216.426 229.347L216.418 229.358L189.117 265.479L228.838 318.701C231.539 322.101 234.002 324.804 236.224 326.854C238.6 328.873 240.734 330.168 242.622 330.891C244.678 331.678 246.536 332.026 248.222 332.026H256V352L251.901 347.923Z" fill="#FAF3F0"/>
<path d="M82.8166 333H80.4351H72V214H85.4627H88.9026C91.5487 214 94.1066 214.527 96.5763 215.58C99.046 216.633 101.516 218.212 103.985 220.319C106.632 222.425 109.189 224.97 111.659 227.954L145 273.237L111.659 316.15C108.307 320.538 105.22 323.961 102.398 326.418C99.5753 328.875 96.6645 330.631 93.6656 331.684C90.6667 332.561 87.0504 333 82.8166 333Z" fill="#36272E"/>
<path d="M81.4831 325H79.3952H72V221H83.8029H86.8188C89.1386 221 91.3812 221.46 93.5464 222.381C95.7116 223.301 97.8768 224.681 100.042 226.522C102.362 228.363 104.604 230.587 106.77 233.195L136 272.77L106.77 310.274C103.831 314.109 101.125 317.1 98.6501 319.248C96.1756 321.395 93.6237 322.929 90.9945 323.85C88.3653 324.617 85.1949 325 81.4831 325Z" fill="#FAF3F0"/>
</svg>
