<svg width="514" height="512" viewBox="0 0 514 512" fill="none" xmlns="http://www.w3.org/2000/svg">
<rect width="512" height="512" transform="translate(2)" fill="#36272E"/>
<path d="M2 512V481.882H11.3125C21.8189 481.882 31.3702 480.926 39.9663 479.014C49.0401 476.624 56.2035 472.082 61.4567 465.389C67.1875 458.218 70.0529 447.701 70.0529 433.838V316L104.5 274L70.0529 227V78.8795C70.0529 64.5378 67.1875 54.0206 61.4567 47.3278C56.2035 40.1569 49.0401 35.6153 39.9663 33.7031C31.3702 31.3128 21.8189 30.1176 11.3125 30.1176H2V0H194.697C236.245 0 270.63 5.25864 297.851 15.7759C325.072 25.8152 345.369 41.113 358.74 61.6695C372.112 81.7479 378.798 107.324 378.798 138.398C378.798 163.735 373.545 185.247 363.038 202.936C352.532 220.146 339.16 234.009 322.923 244.527C307.163 255.044 290.687 263.171 273.495 268.908L371.635 424.515C377.843 434.077 383.812 442.443 389.543 449.613C395.274 456.784 401.005 462.76 406.736 467.541C412.944 472.321 419.152 475.907 425.361 478.297C432.046 480.687 439.21 481.882 446.851 481.882H449V512H438.971C416.526 512 397.901 511.283 383.096 509.849C368.769 507.937 356.83 504.829 347.279 500.527C337.728 495.746 329.131 489.053 321.49 480.448C314.327 471.843 306.686 460.848 298.567 447.462L201.861 286.118H142.404V433.838C142.404 447.701 145.03 458.218 150.284 465.389C156.014 472.082 163.178 476.624 171.774 479.014C180.848 480.926 190.638 481.882 201.144 481.882H210.457V512H2ZM192.548 252.415C220.724 252.415 242.692 248.351 258.452 240.224C274.212 231.619 285.434 219.19 292.12 202.936C298.806 186.204 302.149 165.408 302.149 140.549C302.149 114.734 298.567 94.1774 291.404 78.8795C284.24 63.1036 272.54 51.8693 256.303 45.1765C240.066 38.0056 218.337 34.4202 191.115 34.4202H142.404V252.415H192.548Z" fill="#FAF3F0"/>
<path d="M14.1056 354.504H11H0V369H11H93.1268V354.504H92.0915C84.5 354.504 78.9789 353.698 75.5282 352.088C72.3075 350.247 70.6972 347.486 70.6972 343.804C70.6972 340.123 71.7324 336.326 73.8028 332.414C75.8732 328.272 77.9437 324.821 80.0141 322.06L104.169 288.235L127.289 319.299C132.58 326.432 136.031 331.609 137.641 334.83C139.481 337.822 140.401 340.583 140.401 343.114C140.401 346.795 138.676 349.672 135.225 351.743C131.775 353.583 126.599 354.504 119.697 354.504H117.972V369H207V354.504H202.514C199.754 354.504 196.878 353.928 193.887 352.778C190.897 351.627 187.791 349.672 184.57 346.91C181.58 344.149 178.359 340.583 174.908 336.211L124.183 267.871L159.725 220.586C164.326 214.373 168.352 209.656 171.803 206.435C175.484 203.213 179.049 201.142 182.5 200.222C186.181 199.072 190.207 198.496 194.577 198.496H197.683V184H122.113V198.496H123.148C128.439 198.496 132.81 199.187 136.261 200.567C139.941 201.718 141.782 204.364 141.782 208.506C141.782 211.497 140.977 214.833 139.366 218.515C137.756 221.966 135.685 225.648 133.155 229.56L115.211 255.446L92.4366 224.382C89.9061 220.701 87.9507 217.71 86.5704 215.409C85.1901 213.108 84.5 210.807 84.5 208.506C84.5 205.744 85.7653 203.443 88.2958 201.603C91.0563 199.532 96.3474 198.496 104.169 198.496H105.204V184H17.5563H0V198.496H17.5563H22.0423C25.493 198.496 28.8286 199.187 32.0493 200.567C35.27 201.948 38.4906 204.019 41.7113 206.78C45.162 209.541 48.4977 212.877 51.7183 216.789L95.1972 276.155L51.7183 332.414C47.3474 338.167 43.3216 342.654 39.6408 345.875C35.9601 349.096 32.1643 351.397 28.2535 352.778C24.3427 353.928 19.6268 354.504 14.1056 354.504Z" fill="#9A7777"/>
<path d="M207 369V354.504H202.514L201.995 354.497C199.567 354.434 197.051 353.931 194.446 352.987L193.888 352.778C190.897 351.628 187.791 349.671 184.57 346.91C181.767 344.322 178.761 341.026 175.553 337.021L174.908 336.211L124.183 267.871L159.726 220.586C164.327 214.373 168.352 209.656 171.803 206.435C175.483 203.213 179.049 201.142 182.5 200.222C186.181 199.071 190.206 198.496 194.577 198.496H197.683V184L202.683 179V203.496H194.577C190.646 203.496 187.129 204.013 183.991 204.994L183.891 205.025L183.789 205.053C181.317 205.712 178.438 207.285 175.158 210.144C172.036 213.069 168.234 217.497 163.743 223.562L163.732 223.576L163.723 223.59L130.424 267.89L178.871 333.161C182.166 337.332 185.169 340.647 187.88 343.16C190.778 345.637 193.38 347.226 195.683 348.111C198.191 349.076 200.457 349.504 202.514 349.504H212V374L207 369Z" fill="#36272E"/>
<path d="M219.817 369V354.504H215.331L214.812 354.497C212.384 354.434 209.868 353.931 207.264 352.987L206.705 352.778C203.714 351.628 200.608 349.671 197.388 346.91C194.584 344.322 191.578 341.026 188.37 337.021L187.726 336.211L137 267.871L172.543 220.586C177.144 214.373 181.169 209.656 184.62 206.435C188.301 203.213 191.867 201.142 195.317 200.222C198.998 199.071 203.024 198.496 207.395 198.496H210.5V184L215.5 179V203.496H207.395C203.463 203.496 199.947 204.013 196.809 204.994L196.708 205.025L196.606 205.053C194.134 205.712 191.255 207.285 187.976 210.144C184.853 213.069 181.052 217.497 176.561 223.562L176.55 223.576L176.54 223.59L143.241 267.89L191.688 333.161C194.983 337.332 197.987 340.647 200.697 343.16C203.595 345.637 206.197 347.226 208.5 348.111C211.008 349.076 213.275 349.504 215.331 349.504H224.817V374L219.817 369Z" fill="#36272E"/>
<path d="M13.1874 350H10.2839H0V204H16.4135H20.6073C23.8334 204 26.9519 204.646 29.9629 205.938C32.9739 207.23 35.9849 209.168 38.9959 211.752C42.222 214.336 45.3405 217.459 48.3515 221.119L89 276.677L48.3515 329.327C44.2652 334.711 40.5014 338.91 37.0603 341.925C33.6192 344.94 30.0705 347.093 26.4143 348.385C22.7581 349.462 18.3491 350 13.1874 350Z" fill="#FAF3F0"/>
<path d="M11.5575 341H9.01287H0V213H14.3848H18.0604C20.8877 213 23.6208 213.566 26.2597 214.699C28.8985 215.832 31.5374 217.531 34.1762 219.796C37.0035 222.062 39.7366 224.799 42.3755 228.009L78 276.717L42.3755 322.876C38.7942 327.596 35.4956 331.277 32.4798 333.92C29.464 336.563 26.3539 338.451 23.1496 339.584C19.9453 340.528 16.0812 341 11.5575 341Z" fill="#36272E"/>
</svg>
