<svg width="512" height="512" viewBox="0 0 512 512" fill="none" xmlns="http://www.w3.org/2000/svg">
<rect width="512" height="512" fill="#36272E"/>
<path d="M74.011 465.14V440.535H81.6149C90.1937 440.535 97.9926 439.754 105.012 438.192C112.421 436.239 118.27 432.529 122.559 427.061C127.239 421.203 129.578 412.611 129.578 401.285V305.017L157.705 270.705L129.578 232.308V111.301C129.578 99.5846 127.239 90.9925 122.559 85.5248C118.27 79.6665 112.421 75.9563 105.012 74.3941C97.9926 72.4413 90.1937 71.4649 81.6149 71.4649H74.011V46.8603H231.354C265.279 46.8603 293.355 51.1563 315.582 59.7484C337.809 67.95 354.382 80.4476 365.3 97.2413C376.219 113.644 381.678 134.539 381.678 159.925C381.678 180.624 377.389 198.199 368.81 212.649C360.231 226.709 349.313 238.035 336.054 246.627C323.186 255.219 309.733 261.858 295.695 266.545L375.829 393.669C380.898 401.48 385.772 408.315 390.452 414.173C395.131 420.031 399.81 424.913 404.49 428.819C409.559 432.724 414.628 435.653 419.698 437.606C425.157 439.559 431.006 440.535 437.245 440.535H439V465.14H430.811C412.484 465.14 397.276 464.554 385.188 463.382C373.489 461.82 363.741 459.281 355.942 455.767C348.143 451.861 341.124 446.393 334.885 439.363C329.035 432.333 322.796 423.351 316.167 412.415L237.203 280.605H188.655V401.285C188.655 412.611 190.8 421.203 195.089 427.061C199.768 432.529 205.618 436.239 212.637 438.192C220.046 439.754 228.039 440.535 236.618 440.535H244.222V465.14H74.011ZM229.599 253.071C252.606 253.071 270.544 249.751 283.412 243.112C296.28 236.082 305.444 225.928 310.903 212.649C316.362 198.98 319.092 181.991 319.092 161.682C319.092 140.592 316.167 123.799 310.318 111.301C304.469 98.4129 294.915 89.235 281.657 83.7673C268.399 77.9091 250.656 74.9799 228.429 74.9799H188.655V253.071H229.599Z" fill="#FAF3F0"/>
<path d="M83.5108 336.686H80.9765H72V348.504H80.9765H147.995V336.686H147.151C140.955 336.686 136.45 336.029 133.634 334.716C131.006 333.216 129.692 330.965 129.692 327.963C129.692 324.962 130.537 321.866 132.226 318.677C133.916 315.301 135.605 312.487 137.295 310.236L157.006 282.66L175.873 307.985C180.191 313.8 183.007 318.021 184.321 320.647C185.822 323.086 186.573 325.337 186.573 327.4C186.573 330.402 185.165 332.747 182.349 334.435C179.534 335.936 175.31 336.686 169.678 336.686H168.27V348.504H240.921V336.686H237.26C235.007 336.686 232.661 336.217 230.22 335.279C227.78 334.341 225.245 332.747 222.617 330.496C220.177 328.244 217.548 325.337 214.733 321.773L173.339 266.059L202.342 227.509C206.097 222.444 209.382 218.598 212.198 215.972C215.202 213.346 218.112 211.658 220.928 210.907C223.931 209.969 227.216 209.5 230.783 209.5H233.318V197.682H171.649V209.5H172.494C176.812 209.5 180.378 210.063 183.194 211.189C186.198 212.127 187.7 214.284 187.7 217.66C187.7 220.099 187.043 222.819 185.729 225.821C184.414 228.634 182.725 231.636 180.66 234.825L166.017 255.929L147.432 230.604C145.367 227.603 143.771 225.164 142.645 223.288C141.519 221.412 140.955 219.536 140.955 217.66C140.955 215.409 141.988 213.533 144.053 212.033C146.306 210.344 150.623 209.5 157.006 209.5H157.851V197.682H86.3267H72V209.5H86.3267H89.9874C92.8033 209.5 95.5254 210.063 98.1535 211.189C100.782 212.314 103.41 214.002 106.038 216.254C108.854 218.505 111.576 221.225 114.204 224.414L149.685 272.812L114.204 318.677C110.637 323.367 107.352 327.025 104.349 329.651C101.345 332.278 98.2474 334.154 95.056 335.279C91.8647 336.217 88.0162 336.686 83.5108 336.686Z" fill="#9A7777"/>
<path d="M240.878 348.427V336.542H237.231L236.809 336.537C234.835 336.485 232.79 336.073 230.673 335.299L230.218 335.127C227.787 334.184 225.262 332.58 222.644 330.316C220.365 328.194 217.921 325.492 215.314 322.209L214.79 321.545L173.553 265.516L202.447 226.749C206.187 221.656 209.46 217.788 212.265 215.147C215.257 212.506 218.156 210.808 220.961 210.053C223.953 209.11 227.226 208.639 230.779 208.639H233.303V196.754L237.368 192.655V212.738H230.779C227.583 212.738 224.725 213.162 222.173 213.966L222.092 213.992L222.009 214.014C219.999 214.555 217.659 215.844 214.993 218.188C212.454 220.587 209.364 224.217 205.713 229.189L205.704 229.201L205.697 229.212L178.627 265.531L218.011 319.044C220.689 322.463 223.131 325.181 225.335 327.242C227.69 329.272 229.806 330.575 231.678 331.301C233.717 332.092 235.559 332.443 237.231 332.443H244.942V352.526L240.878 348.427Z" fill="#36272E"/>
<path d="M251.881 348.427V336.542H248.182L247.755 336.537C245.753 336.485 243.679 336.073 241.532 335.299L241.071 335.127C238.606 334.184 236.045 332.58 233.39 330.316C231.079 328.194 228.601 325.492 225.956 322.209L225.425 321.545L183.608 265.516L212.909 226.749C216.702 221.656 220.02 217.788 222.865 215.147C225.899 212.506 228.839 210.808 231.684 210.053C234.718 209.11 238.037 208.639 241.64 208.639H244.2V196.754L248.322 192.655V212.738H241.64C238.399 212.738 235.5 213.162 232.913 213.966L232.83 213.992L232.746 214.014C230.708 214.555 228.335 215.844 225.631 218.188C223.057 220.587 219.923 224.217 216.221 229.189L216.212 229.201L216.204 229.212L188.753 265.531L228.692 319.044C231.408 322.463 233.884 325.181 236.119 327.242C238.508 329.272 240.653 330.575 242.551 331.301C244.619 332.092 246.487 332.443 248.182 332.443H256.003V352.526L251.881 348.427Z" fill="#36272E"/>
<path d="M82.7269 332.416H80.3652H72V213.77H85.3511H88.7625C91.3866 213.77 93.9233 214.295 96.3725 215.345C98.8217 216.395 101.271 217.97 103.72 220.07C106.344 222.17 108.881 224.707 111.33 227.682L144.395 272.831L111.33 315.617C108.006 319.992 104.945 323.404 102.146 325.854C99.3465 328.304 96.46 330.054 93.4859 331.104C90.5119 331.979 86.9255 332.416 82.7269 332.416Z" fill="#FAF3F0"/>
<path d="M81.386 325.378H79.3195H72V220.808H83.6822H86.6671C88.9633 220.808 91.1829 221.271 93.3259 222.196C95.469 223.122 97.6121 224.51 99.7551 226.361C102.051 228.211 104.271 230.448 106.414 233.07L135.345 272.862L106.414 310.572C103.505 314.428 100.827 317.435 98.3774 319.594C95.9282 321.754 93.4025 323.296 90.8002 324.221C88.1979 324.992 85.0599 325.378 81.386 325.378Z" fill="#36272E"/>
</svg>
